<?xml version="1.0" encoding="UTF-8"?>
<!--
  Alpha mask for `.s1demo-curveStripSlot` — use CSS mask-mode: alpha (WebKit/iOS).

  Opaque white = visible pixel; everywhere else stays transparent (no black backdrop
  rect — Safari mishandles luminance or treats the composite incorrectly on external SVG masks).

  viewBox/size match CurvedLine body path; stretch with CSS mask-size: 100% 100%.
-->
<svg xmlns="http://www.w3.org/2000/svg" width="76" height="973" viewBox="0 0 76 973" preserveAspectRatio="none">
  <path
    fill="#ffffff"
    d="M38.0749 377.503C40.2632 368.048 41.483 362.743 43.5986 353.252C43.5986 353.252 68.8256 287.211 72.8383 223.827L72.8598 217.5V192.646C72.1107 182.231 70.5056 172.232 67.8085 163C63.6493 148.763 60.061 143.055 52.163 130.5C48.4975 124.673 45.3306 121.059 40.663 116C34.2897 109.092 30.4741 106.465 24.163 99.5C-1.3427 71.3515 2.16299 2 2.16299 2H72.8598V192.646C73.5868 202.753 73.5077 213.253 72.8383 223.827L70.2967 972C70.2967 972 65.8077 950.628 62.9317 936.933L55.5667 901.866C55.5667 901.866 51.2177 879.297 48.4319 864.833C45.6452 850.371 44.0138 842.29 41.2971 827.8L40.4447 823.256C35.4621 796.696 32.417 780.465 27.9481 752.423C23.5632 724.91 21.2141 709.353 17.8213 681.634C13.7903 648.701 10.7518 630.376 9.53567 597.08C8.28362 562.803 8.4079 543.224 11.8372 509.25C14.9692 478.217 18.8533 461.278 25.1862 431.251C29.666 410.009 33.1984 398.568 38.0749 377.503Z"
  />
</svg>
